<svg width="42" height="42" viewBox="0 0 42 42" fill="none" xmlns="http://www.w3.org/2000/svg">
<g id="arrow-right-up-outline 1" clip-path="url(#clip0_614_274)">
<path id="Vector" fill-rule="evenodd" clip-rule="evenodd" d="M15.75 11.8125C15.4019 11.8125 15.0681 11.6742 14.8219 11.4281C14.5758 11.1819 14.4375 10.8481 14.4375 10.5C14.4375 10.1519 14.5758 9.81806 14.8219 9.57192C15.0681 9.32578 15.4019 9.1875 15.75 9.1875H31.5C31.8481 9.1875 32.1819 9.32578 32.4281 9.57192C32.6742 9.81806 32.8125 10.1519 32.8125 10.5V26.25C32.8125 26.5981 32.6742 26.9319 32.4281 27.1781C32.1819 27.4242 31.8481 27.5625 31.5 27.5625C31.1519 27.5625 30.8181 27.4242 30.5719 27.1781C30.3258 26.9319 30.1875 26.5981 30.1875 26.25V13.6675L11.4275 32.4275C11.1787 32.6593 10.8496 32.7856 10.5096 32.7796C10.1696 32.7736 9.84514 32.6358 9.60467 32.3953C9.36419 32.1549 9.22645 31.8304 9.22045 31.4904C9.21445 31.1504 9.34067 30.8213 9.57251 30.5725L28.3325 11.8125H15.75Z" fill="black"/>
</g>
<defs>
<clipPath id="clip0_614_274">
<rect width="42" height="42" fill="white"/>
</clipPath>
</defs>
</svg>
