<svg width="42" height="43" viewBox="0 0 42 43" fill="none" xmlns="http://www.w3.org/2000/svg">
<g id="dribbble-icon 1" clip-path="url(#clip0_611_206)">
<path id="Vector" d="M21 2.20215C31.8281 2.20215 40.5891 10.9631 40.5891 21.7748C40.5891 32.5865 31.8281 41.3639 21 41.3639C10.1719 41.3639 1.41095 32.6029 1.41095 21.7912C1.41095 10.9795 10.1719 2.20215 21 2.20215Z" fill="#E74D89"/>
<path id="Vector_2" d="M21 42.7584C9.41719 42.7584 0 33.3576 0 21.7912C0 10.2084 9.41719 0.807617 21 0.807617C32.5828 0.807617 42 10.2084 42 21.7748C42 33.3412 32.5828 42.7584 21 42.7584ZM38.7023 24.6459C38.0953 24.449 33.157 22.9889 27.5297 23.8748C29.8758 30.3061 30.8273 35.5561 31.0078 36.6389C35.0438 33.9318 37.9148 29.6334 38.7023 24.6459ZM28.0055 38.2959C27.743 36.7209 26.693 31.2412 24.1828 24.7115C24.15 24.7279 24.1008 24.7443 24.068 24.7443C13.9453 28.2717 10.3195 35.2771 9.99141 35.9334C13.0266 38.2959 16.8492 39.7068 21 39.7068C23.4773 39.7232 25.8562 39.2146 28.0055 38.2959ZM7.67812 33.7842C8.08828 33.0951 13.0102 24.9576 22.2633 21.9553C22.493 21.8732 22.7391 21.8076 22.9688 21.742C22.5258 20.7248 22.0336 19.7076 21.5086 18.7068C12.5508 21.3811 3.85547 21.2662 3.06797 21.2498C3.06797 21.4303 3.05156 21.6107 3.05156 21.7912C3.06797 26.4014 4.80703 30.6014 7.67812 33.7842ZM3.44531 18.1326C4.24922 18.149 11.632 18.1818 20.032 15.9506C17.0625 10.6678 13.8469 6.23809 13.3875 5.59824C8.35078 7.96074 4.61016 12.5873 3.44531 18.1326ZM16.8 4.38418C17.2922 5.04043 20.557 9.47012 23.4937 14.8678C29.8758 12.4725 32.5664 8.86309 32.8945 8.40371C29.7281 5.59824 25.5609 3.89199 21 3.89199C19.5562 3.89199 18.1453 4.07246 16.8 4.38418ZM34.8797 10.4709C34.5023 10.9795 31.5 14.835 24.8719 17.542C25.282 18.3951 25.6922 19.2646 26.0695 20.1342C26.2008 20.4459 26.332 20.7576 26.4633 21.0529C32.4352 20.2982 38.3578 21.5123 38.9484 21.6271C38.8992 17.4107 37.3898 13.5225 34.8797 10.4709Z" fill="#B2215A"/>
</g>
<defs>
<clipPath id="clip0_611_206">
<rect width="42" height="42" fill="white" transform="translate(0 0.807617)"/>
</clipPath>
</defs>
</svg>
