<svg width="42" height="44" viewBox="0 0 42 44" fill="none" xmlns="http://www.w3.org/2000/svg">
<g id="github 1">
<g id="Group">
<path id="Vector" fill-rule="evenodd" clip-rule="evenodd" d="M21 1.73877C10.058 1.73877 1.18518 10.9508 1.18518 22.3157C1.18518 31.4075 6.86273 39.1202 14.7358 41.8414C15.7257 42.0322 16.0893 41.395 16.0893 40.8515C16.0893 40.3609 16.0709 38.74 16.0624 37.0205C10.5499 38.2653 9.38667 34.5927 9.38667 34.5927C8.48531 32.2143 7.18659 31.5819 7.18659 31.5819C5.38846 30.3048 7.3221 30.3314 7.3221 30.3314C9.31152 30.4762 10.3596 32.4518 10.3596 32.4518C12.1268 35.5969 14.995 34.6878 16.1257 34.1624C16.3035 32.8325 16.8171 31.9244 17.3837 31.4105C12.9826 30.8909 8.3557 29.1262 8.3557 21.2417C8.3557 18.9951 9.13007 17.1595 10.3976 15.7182C10.1916 15.2002 9.51332 13.1074 10.5892 10.2731C10.5892 10.2731 12.2528 9.72004 16.0394 12.3823C17.6203 11.926 19.3157 11.6967 21 11.6889C22.6833 11.6967 24.3797 11.9253 25.9635 12.3816C29.7455 9.71936 31.4071 10.2724 31.4071 10.2724C32.4857 13.1064 31.8074 15.1996 31.6017 15.7175C32.8722 17.1589 33.641 18.9944 33.641 21.241C33.641 29.1442 29.0056 30.8841 24.5933 31.3938C25.3043 32.0324 25.9376 33.285 25.9376 35.2044C25.9376 37.9576 25.9146 40.1735 25.9146 40.8512C25.9146 41.3988 26.2717 42.0404 27.2757 41.8383C35.1441 39.1144 40.8151 31.404 40.8151 22.3157C40.8148 10.9515 31.943 1.73877 21 1.73877Z" fill="#181616"/>
<path id="Vector_2" d="M8.69005 31.2824C8.64641 31.3846 8.49153 31.4153 8.35044 31.3454C8.20606 31.2787 8.12567 31.1393 8.17227 31.0367C8.21492 30.9311 8.37013 30.9021 8.51352 30.9727C8.65789 31.0398 8.73992 31.1805 8.68972 31.2827L8.69005 31.2824ZM9.49264 32.2123C9.39847 32.3033 9.21374 32.261 9.08839 32.1169C8.95846 31.9738 8.93417 31.7819 9.03031 31.6896C9.1281 31.599 9.30725 31.6419 9.43719 31.785C9.56647 31.9302 9.59206 32.1203 9.49297 32.2126L9.49264 32.2123ZM10.2742 33.3971C10.1528 33.485 9.95399 33.4029 9.83127 33.2199C9.70986 33.0366 9.70986 32.8168 9.83455 32.7292C9.95694 32.6413 10.1528 32.7207 10.2775 32.902C10.3983 33.0877 10.3983 33.3078 10.2742 33.3971ZM11.3443 34.5423C11.236 34.6667 11.0043 34.6333 10.835 34.4639C10.6621 34.298 10.6138 34.0619 10.7225 33.9378C10.8327 33.8131 11.0653 33.8479 11.2356 34.0162C11.4086 34.1818 11.4607 34.4183 11.3449 34.542L11.3443 34.5423ZM12.8208 35.2071C12.7726 35.3683 12.5501 35.4415 12.3253 35.3727C12.1012 35.3022 11.9546 35.1137 12.0005 34.9509C12.0464 34.7883 12.2705 34.7123 12.4966 34.7856C12.7207 34.8558 12.8674 35.0432 12.8208 35.2071ZM14.4427 35.3301C14.4483 35.4998 14.258 35.6402 14.0227 35.6436C13.7855 35.6494 13.5935 35.5117 13.5913 35.3448C13.5913 35.1734 13.7776 35.0347 14.0145 35.0299C14.2498 35.0255 14.4431 35.1618 14.4431 35.3298L14.4427 35.3301ZM15.9515 35.0637C15.9797 35.2289 15.8159 35.3989 15.582 35.4443C15.3523 35.4886 15.139 35.3857 15.1095 35.2218C15.0813 35.0521 15.248 34.882 15.4776 34.8381C15.7119 34.7962 15.9219 34.8957 15.9515 35.0637Z" fill="#181616"/>
</g>
</g>
</svg>
