<svg width="42" height="43" viewBox="0 0 42 43" fill="none" xmlns="http://www.w3.org/2000/svg">
<g clip-path="url(#clip0_611_218)">
<path d="M38.0625 1.7919H3.9375C3.16323 1.78402 2.41745 2.08362 1.86381 2.62495C1.31017 3.16629 0.993894 3.90515 0.984375 4.6794V38.9422C0.995616 39.7153 1.31265 40.4525 1.8661 40.9924C2.41955 41.5323 3.16435 41.831 3.9375 41.8232H38.0625C38.8368 41.8293 39.5821 41.5287 40.1354 40.987C40.6888 40.4453 41.0052 39.7066 41.0156 38.9324V4.66956C41.0018 3.89757 40.6839 3.16224 40.1309 2.62339C39.5779 2.08454 38.8346 1.78572 38.0625 1.7919Z" fill="#0076B2"/>
<path d="M6.91031 16.7971H12.8526V35.917H6.91031V16.7971ZM9.88312 7.28149C10.5647 7.28149 11.2309 7.48364 11.7976 7.86236C12.3642 8.24108 12.8058 8.77936 13.0665 9.4091C13.3272 10.0388 13.3952 10.7317 13.262 11.4002C13.1288 12.0686 12.8003 12.6825 12.3182 13.1642C11.836 13.6459 11.2218 13.9738 10.5533 14.1063C9.88471 14.2389 9.19187 14.1702 8.56238 13.9089C7.93289 13.6476 7.39503 13.2055 7.01685 12.6385C6.63867 12.0715 6.43716 11.4051 6.43781 10.7235C6.43868 9.81034 6.80205 8.93485 7.44807 8.28944C8.0941 7.64403 8.96993 7.28149 9.88312 7.28149ZM16.5802 16.7971H22.2764V19.4221H22.3552C23.1492 17.9193 25.0852 16.3345 27.9759 16.3345C33.9937 16.3213 35.1094 20.2818 35.1094 25.417V35.917H29.167V26.6146C29.167 24.3998 29.1277 21.5484 26.0794 21.5484C23.0311 21.5484 22.5127 23.9634 22.5127 26.4702V35.917H16.5802V16.7971Z" fill="white"/>
</g>
<defs>
<clipPath id="clip0_611_218">
<rect width="42" height="42" fill="white" transform="translate(0 0.807617)"/>
</clipPath>
</defs>
</svg>
