<svg width="42" height="43" viewBox="0 0 42 43" fill="none" xmlns="http://www.w3.org/2000/svg">
<g id="twitter 1" clip-path="url(#clip0_611_215)">
<path id="Vector" d="M37.7003 13.2397C37.7258 13.6102 37.7258 13.9803 37.7258 14.354C37.7258 25.74 29.0578 38.8715 13.2083 38.8715V38.865C8.52603 38.8715 3.94076 37.5304 0 35.0016C0.680859 35.0837 1.365 35.1247 2.05078 35.1263C5.93155 35.1294 9.7007 33.8278 12.7526 31.4306C10.9544 31.3967 9.21187 30.8016 7.7685 29.7287C6.32513 28.6558 5.25312 27.1587 4.70236 25.4466C5.99419 25.696 7.32506 25.6445 8.59294 25.298C4.57275 24.4859 1.68066 20.9539 1.68066 16.8521V16.7428C2.87907 17.4104 4.22036 17.7803 5.59158 17.8213C1.80469 15.2908 0.638203 10.2538 2.92458 6.31596C5.08787 8.97792 7.78693 11.1551 10.8464 12.706C13.906 14.2569 17.2575 15.1468 20.6834 15.3181C20.3419 13.8477 20.3924 12.3134 20.8299 10.8686C21.2674 9.42389 22.0766 8.11933 23.1765 7.08541C26.647 3.82287 32.1054 3.99021 35.3676 7.45915C37.2974 7.07811 39.148 6.37058 40.8397 5.36702C40.1964 7.36225 38.8504 9.05592 37.0519 10.133C38.76 9.93164 40.4281 9.47425 42 8.77624C40.8436 10.508 39.3876 12.0195 37.7003 13.2397Z" fill="#1D9BF0"/>
</g>
<defs>
<clipPath id="clip0_611_215">
<rect width="42" height="42" fill="white" transform="translate(0 0.807617)"/>
</clipPath>
</defs>
</svg>
